<?xml version="1.0" encoding="UTF-8"?> <svg xmlns="http://www.w3.org/2000/svg" width="33" height="39" viewBox="0 0 33 39" fill="none"><path d="M9.00658 7.62974H3.30117C3.15384 7.62974 3.01254 7.68879 2.90836 7.79389C2.80418 7.899 2.74565 8.04155 2.74565 8.19018V13.9466C2.74565 14.0953 2.80418 14.2378 2.90836 14.3429C3.01254 14.448 3.15384 14.5071 3.30117 14.5071H9.00658C9.15392 14.5071 9.29521 14.448 9.39939 14.3429C9.50357 14.2378 9.5621 14.0953 9.5621 13.9466V8.19018C9.5621 8.04155 9.50357 7.899 9.39939 7.79389C9.29521 7.68879 9.15392 7.62974 9.00658 7.62974ZM8.45062 13.3862H3.85714V8.75017H8.45062V13.3862ZM4.58583 11.3795C4.47793 11.278 4.41442 11.1374 4.40927 10.9886C4.40413 10.8398 4.45777 10.6951 4.55839 10.5862C4.65902 10.4774 4.79839 10.4133 4.94585 10.4081C5.0933 10.4029 5.23676 10.457 5.34467 10.5586L5.81832 11.0033L6.97388 9.95683C7.08462 9.86431 7.22658 9.81867 7.36996 9.82948C7.51334 9.8403 7.64699 9.90674 7.74285 10.0148C7.83871 10.1229 7.88934 10.2643 7.88409 10.4093C7.87885 10.5542 7.81815 10.6915 7.71472 10.7923L6.18131 12.1795C6.07804 12.273 5.94389 12.3241 5.80518 12.3229C5.66646 12.3218 5.53319 12.2684 5.43148 12.1732L4.58583 11.3795ZM9.00658 15.9828H3.30117C3.22818 15.9828 3.15591 15.9974 3.08848 16.0255C3.02105 16.0537 2.95979 16.0951 2.9082 16.1472C2.85661 16.1992 2.8157 16.2611 2.78781 16.3291C2.75992 16.3972 2.74559 16.4701 2.74565 16.5437V22.2997C2.74565 22.4484 2.80418 22.5909 2.90836 22.696C3.01254 22.8011 3.15384 22.8602 3.30117 22.8602H9.00658C9.15392 22.8602 9.29521 22.8011 9.39939 22.696C9.50357 22.5909 9.5621 22.4484 9.5621 22.2997V16.5437C9.56216 16.4701 9.54784 16.3972 9.51995 16.3291C9.49205 16.2611 9.45114 16.1992 9.39955 16.1472C9.34796 16.0951 9.2867 16.0537 9.21928 16.0255C9.15185 15.9974 9.07957 15.9828 9.00658 15.9828ZM8.45062 21.7388H3.85714V17.1042H8.45062V21.7388ZM4.58628 19.7321C4.47844 19.6307 4.41496 19.4902 4.40981 19.3415C4.40467 19.1928 4.45828 19.0481 4.55884 18.9393C4.65941 18.8305 4.7987 18.7665 4.94607 18.7613C5.09344 18.7561 5.23682 18.8102 5.34467 18.9117L5.81877 19.3564L6.97433 18.3127C7.02862 18.2635 7.09198 18.2255 7.16079 18.201C7.22961 18.1765 7.30253 18.166 7.37539 18.1699C7.44826 18.1738 7.51964 18.1922 7.58547 18.224C7.65129 18.2558 7.71027 18.3003 7.75903 18.3551C7.80779 18.4098 7.84539 18.4738 7.86966 18.5432C7.89394 18.6126 7.90442 18.6862 7.90052 18.7597C7.89661 18.8332 7.87839 18.9052 7.8469 18.9716C7.81541 19.038 7.77126 19.0975 7.71697 19.1467L6.18356 20.5354C6.08133 20.6274 5.94907 20.6783 5.81202 20.6783C5.67171 20.6786 5.53658 20.6249 5.43418 20.5281L4.58628 19.7321ZM9.00658 24.3359H3.30117C3.15384 24.3359 3.01254 24.395 2.90836 24.5001C2.80418 24.6052 2.74565 24.7477 2.74565 24.8964V30.6533C2.74577 30.8019 2.80435 30.9443 2.90852 31.0493C3.01269 31.1543 3.15391 31.2133 3.30117 31.2133H9.00658C9.15392 31.2133 9.29521 31.1542 9.39939 31.0491C9.50357 30.944 9.5621 30.8015 9.5621 30.6528V24.8968C9.5621 24.7482 9.50357 24.6056 9.39939 24.5005C9.29521 24.3954 9.15392 24.3364 9.00658 24.3364V24.3359ZM8.45062 30.0924H3.85714V25.4577H8.45062V30.0924ZM4.58583 28.0866C4.53237 28.0363 4.48925 27.9759 4.45893 27.9089C4.42861 27.8418 4.41168 27.7693 4.40911 27.6956C4.40654 27.622 4.41838 27.5485 4.44396 27.4794C4.46953 27.4104 4.50834 27.3471 4.55817 27.2931C4.60799 27.2392 4.66786 27.1957 4.73435 27.1651C4.80084 27.1345 4.87265 27.1174 4.94569 27.1148C5.01872 27.1122 5.09154 27.1242 5.16 27.15C5.22846 27.1758 5.29121 27.215 5.34467 27.2652L5.81832 27.7095L6.97388 26.6635C7.02817 26.6143 7.09153 26.5764 7.16034 26.5519C7.22916 26.5274 7.30208 26.5168 7.37494 26.5207C7.44781 26.5247 7.51919 26.5431 7.58502 26.5748C7.65084 26.6066 7.70982 26.6511 7.75858 26.7059C7.80734 26.7607 7.84494 26.8246 7.86921 26.894C7.89349 26.9634 7.90397 27.037 7.90007 27.1105C7.89616 27.184 7.87794 27.2561 7.84645 27.3225C7.81496 27.3889 7.77081 27.4484 7.71652 27.4976L6.18311 28.8862C6.07998 28.9799 5.94577 29.0312 5.80697 29.0301C5.66817 29.0289 5.53484 28.9753 5.43328 28.8798L4.58583 28.0866ZM11.8525 9.50666C11.8525 9.35826 11.9109 9.21591 12.0148 9.11085C12.1187 9.00578 12.2596 8.94658 12.4067 8.94622H16.3574C16.5021 8.95037 16.6394 9.01126 16.7403 9.11595C16.8411 9.22065 16.8976 9.36089 16.8976 9.50689C16.8976 9.65288 16.8411 9.79313 16.7403 9.89782C16.6394 10.0025 16.5021 10.0634 16.3574 10.0676H12.4067C12.2596 10.0671 12.1186 10.0078 12.0147 9.90263C11.9109 9.79749 11.8525 9.6551 11.8525 9.50666ZM11.8525 12.6302C11.8525 12.4818 11.9109 12.3394 12.0148 12.2344C12.1187 12.1293 12.2596 12.0701 12.4067 12.0697H20.6383C20.7856 12.0697 20.9269 12.1288 21.0311 12.2339C21.1353 12.339 21.1938 12.4815 21.1938 12.6302C21.1938 12.7788 21.1353 12.9214 21.0311 13.0265C20.9269 13.1316 20.7856 13.1906 20.6383 13.1906H12.4067C12.2596 13.1902 12.1187 13.131 12.0148 13.026C11.9109 12.9209 11.8525 12.7786 11.8525 12.6302ZM11.8525 17.8598C11.8525 17.7114 11.9109 17.569 12.0148 17.4639C12.1187 17.3589 12.2596 17.2997 12.4067 17.2993H16.3574C16.5021 17.3035 16.6394 17.3644 16.7403 17.469C16.8411 17.5737 16.8976 17.714 16.8976 17.86C16.8976 18.006 16.8411 18.1462 16.7403 18.2509C16.6394 18.3556 16.5021 18.4165 16.3574 18.4207H12.4067C12.2595 18.4203 12.1185 18.361 12.0146 18.2559C11.9107 18.1507 11.8524 18.0082 11.8525 17.8598ZM11.8525 20.9833C11.8525 20.8349 11.9109 20.6925 12.0148 20.5875C12.1187 20.4824 12.2596 20.4232 12.4067 20.4228H20.6383C20.7829 20.427 20.9203 20.4879 21.0211 20.5926C21.122 20.6973 21.1784 20.8375 21.1784 20.9835C21.1784 21.1295 21.122 21.2697 21.0211 21.3744C20.9203 21.4791 20.7829 21.54 20.6383 21.5442H12.4067C12.2595 21.5438 12.1185 21.4845 12.0146 21.3794C11.9107 21.2742 11.8524 21.1317 11.8525 20.9833ZM11.8525 26.2142C11.8524 26.0657 11.9107 25.9233 12.0146 25.8181C12.1185 25.7129 12.2595 25.6537 12.4067 25.6533H16.3574C16.5021 25.6575 16.6394 25.7184 16.7403 25.8231C16.8411 25.9277 16.8976 26.068 16.8976 26.214C16.8976 26.36 16.8411 26.5002 16.7403 26.6049C16.6394 26.7096 16.5021 26.7705 16.3574 26.7747H12.4067C12.2596 26.7743 12.1187 26.7151 12.0148 26.61C11.9109 26.505 11.8525 26.3626 11.8525 26.2142ZM32.6159 28.0725L31.5476 27.7227C31.3926 27.1631 31.1717 26.6244 30.8895 26.118L31.3987 25.1083C31.4519 25.0029 31.4707 24.8832 31.4524 24.7663C31.4342 24.6494 31.3798 24.5414 31.297 24.4576L29.7677 22.9146C29.6848 22.8308 29.5777 22.7755 29.4618 22.757C29.3459 22.7384 29.2272 22.7573 29.1226 22.8112L28.1218 23.3253C27.6196 23.0411 27.0855 22.8186 26.5308 22.6628L26.1835 21.585C26.1473 21.4724 26.0766 21.3744 25.9816 21.3048C25.8867 21.2353 25.7723 21.1979 25.655 21.1979H25.1323V3.8995C25.1317 3.35809 24.9183 2.83902 24.5388 2.45618C24.1593 2.07335 23.6448 1.858 23.1082 1.8574H18.4409V0.825916C18.4408 0.607299 18.3548 0.397636 18.2018 0.242838C18.0488 0.0880396 17.8412 0.000720289 17.6245 0H7.50961C7.29256 0.000240234 7.08447 0.0873331 6.93099 0.24217C6.77752 0.397008 6.69119 0.606943 6.69095 0.825916V1.8565H2.02415C1.48753 1.85722 0.973097 2.0726 0.59365 2.45541C0.214202 2.83822 0.000714066 3.35722 0 3.8986V32.1005C0 32.6421 0.213259 33.1615 0.592861 33.5444C0.972463 33.9274 1.48731 34.1426 2.02415 34.1426H17.826L17.755 34.2837C17.7017 34.3892 17.6829 34.509 17.7013 34.6259C17.7198 34.7428 17.7745 34.8508 17.8575 34.9344L19.3846 36.4774C19.4677 36.5611 19.575 36.6162 19.691 36.6347C19.8071 36.6532 19.9259 36.6342 20.0306 36.5804L21.0301 36.0662C21.5321 36.3511 22.0662 36.574 22.621 36.7301L22.9683 37.8084C23.0046 37.921 23.0752 38.0191 23.1702 38.0887C23.2651 38.1583 23.3795 38.1959 23.4968 38.1959H25.6559C25.7733 38.196 25.8876 38.1585 25.9825 38.089C26.0775 38.0195 26.1482 37.9214 26.1845 37.8088L26.5322 36.7301C27.0872 36.5741 27.6215 36.351 28.1236 36.0658L29.1231 36.5804C29.2278 36.6344 29.3467 36.6535 29.4629 36.635C29.579 36.6165 29.6863 36.5613 29.7695 36.4774L31.2988 34.9344C31.3817 34.8509 31.4363 34.743 31.4547 34.6263C31.4731 34.5096 31.4544 34.39 31.4014 34.2846L30.8895 33.2735C31.1722 32.7668 31.3932 32.2274 31.5476 31.6671L32.6163 31.3167C32.7278 31.28 32.825 31.2087 32.8939 31.1129C32.9628 31.0171 32.9999 30.9019 33 30.7835V28.6053C32.9999 28.487 32.9626 28.3717 32.8936 28.276C32.8246 28.1803 32.7274 28.1091 32.6159 28.0725ZM7.80244 1.12134H17.3299V3.71299H7.80244V1.12134ZM1.11149 32.1005V3.8995C1.1116 3.65521 1.20776 3.42095 1.37885 3.24808C1.54994 3.07521 1.78201 2.97786 2.02415 2.97738H6.69095V4.00842C6.69131 4.22731 6.77769 4.43713 6.93115 4.59187C7.08462 4.74661 7.29264 4.83364 7.50961 4.83388H17.6245C17.8415 4.83364 18.0494 4.74659 18.2028 4.59184C18.3562 4.43709 18.4425 4.22727 18.4427 4.00842V2.97738H23.1082C23.3504 2.97774 23.5826 3.07504 23.7538 3.24792C23.925 3.4208 24.0212 3.65514 24.0213 3.8995V21.1979H23.4968C23.3795 21.198 23.2651 21.2355 23.1702 21.3051C23.0752 21.3747 23.0046 21.4728 22.9683 21.5855L22.621 22.6628C22.0666 22.8193 21.5328 23.0424 21.031 23.3271L20.0301 22.813C19.9256 22.7591 19.8068 22.7401 19.6909 22.7587C19.575 22.7773 19.4679 22.8325 19.3851 22.9165L17.8557 24.4594C17.7726 24.5431 17.7179 24.6511 17.6995 24.7681C17.6811 24.8851 17.6999 25.005 17.7532 25.1106L18.2633 26.1198C17.9806 26.6262 17.7595 27.1651 17.6047 27.7249L16.5364 28.0743C16.4247 28.1108 16.3273 28.182 16.2582 28.2778C16.1891 28.3736 16.1519 28.4891 16.1518 28.6076V28.7777H12.4067C12.2621 28.7819 12.1247 28.8428 12.0238 28.9475C11.923 29.0522 11.8666 29.1924 11.8666 29.3384C11.8666 29.4844 11.923 29.6246 12.0238 29.7293C12.1247 29.834 12.2621 29.8949 12.4067 29.8991H16.1536V30.7872C16.1537 30.9056 16.1909 31.0209 16.2599 31.1167C16.3289 31.2125 16.4262 31.2838 16.5378 31.3204L17.6065 31.6707C17.7399 32.1388 17.9198 32.592 18.1436 33.0235H2.02415C1.78182 33.0231 1.54955 32.9257 1.3784 32.7526C1.20725 32.5795 1.11125 32.3449 1.11149 32.1005ZM31.8885 30.376L30.9142 30.6937C30.8227 30.7236 30.7405 30.7769 30.6756 30.8485C30.6107 30.9201 30.5654 31.0075 30.544 31.1021C30.3932 31.7578 30.1364 32.3839 29.7838 32.9554C29.7334 33.0375 29.7047 33.1313 29.7006 33.2278C29.6965 33.3243 29.7171 33.4202 29.7605 33.5063L30.2256 34.4271L29.2697 35.3919L28.3552 34.9222C28.27 34.8784 28.175 34.8577 28.0795 34.8619C27.984 34.8661 27.8912 34.8952 27.8101 34.9462C27.2439 35.302 26.6233 35.561 25.9735 35.7127C25.8798 35.7342 25.7933 35.7798 25.7224 35.8451C25.6514 35.9104 25.5985 35.9932 25.5687 36.0853L25.2515 37.07H23.9003L23.5854 36.0853C23.5558 35.9935 23.5033 35.911 23.4328 35.8458C23.3624 35.7805 23.2764 35.7347 23.1833 35.7127C22.5334 35.5613 21.9128 35.3025 21.3467 34.9467C21.2656 34.8953 21.1728 34.8661 21.0771 34.8618C20.9815 34.8575 20.8864 34.8783 20.8011 34.9222L19.8866 35.3919L18.929 34.4294L19.3945 33.5086C19.4379 33.4225 19.4585 33.3265 19.4544 33.2301C19.4503 33.1336 19.4216 33.0398 19.3711 32.9577C19.0186 32.386 18.7616 31.7597 18.6105 31.1039C18.5892 31.0093 18.5438 30.9219 18.4789 30.8503C18.414 30.7787 18.3318 30.7254 18.2403 30.6955L17.2656 30.3778V29.0137L18.2421 28.6929C18.333 28.663 18.4146 28.6099 18.4792 28.5389C18.5437 28.4678 18.589 28.3811 18.6105 28.2872C18.7615 27.6315 19.0185 27.0053 19.3711 26.4339C19.4216 26.3518 19.4503 26.258 19.4544 26.1615C19.4585 26.065 19.4379 25.9691 19.3945 25.8829L18.929 24.9622L19.8853 23.9979L20.7984 24.4671C20.8838 24.511 20.979 24.5319 21.0747 24.5278C21.1705 24.5237 21.2636 24.4946 21.3449 24.4435C21.9111 24.0876 22.5316 23.8285 23.1815 23.6766C23.2746 23.6546 23.3604 23.6088 23.4308 23.5436C23.5013 23.4784 23.5539 23.3961 23.5836 23.3045L23.8985 22.3202H25.2533L25.5705 23.3045C25.6002 23.3961 25.6529 23.4785 25.7234 23.5437C25.794 23.6089 25.8799 23.6546 25.973 23.6766C26.623 23.8289 27.2438 24.088 27.8105 24.4435C27.8917 24.4946 27.9846 24.5236 28.0803 24.5277C28.1759 24.5319 28.2709 24.511 28.3561 24.4671L29.2693 23.9979L30.2256 24.9631L29.7605 25.8829C29.7171 25.9691 29.6965 26.065 29.7006 26.1615C29.7047 26.258 29.7334 26.3518 29.7838 26.4339C30.136 27.0055 30.3928 27.6316 30.544 28.2872C30.5657 28.3811 30.6109 28.4677 30.6755 28.5388C30.74 28.6098 30.8216 28.6629 30.9124 28.6929L31.8885 29.0133V30.376ZM24.5768 25.0284C23.6618 25.0283 22.7673 25.302 22.0064 25.8148C21.2455 26.3277 20.6525 27.0566 20.3023 27.9095C19.9521 28.7623 19.8604 29.7008 20.0389 30.6062C20.2174 31.5116 20.658 32.3433 21.3051 32.9961C21.9521 33.6488 22.7765 34.0934 23.6739 34.2734C24.5714 34.4535 25.5016 34.3611 26.347 34.0077C27.1924 33.6544 27.9149 33.0561 28.4232 32.2885C28.9315 31.5209 29.2028 30.6185 29.2027 29.6953C29.2014 28.458 28.7136 27.2717 27.8464 26.3968C26.9791 25.5219 25.8033 25.0298 24.5768 25.0284ZM24.5768 33.3157C23.8671 33.3157 23.1732 33.1034 22.5831 32.7056C21.993 32.3078 21.533 31.7423 21.2614 31.0808C20.9898 30.4192 20.9187 29.6913 21.0572 28.989C21.1956 28.2867 21.5374 27.6416 22.0393 27.1353C22.5412 26.629 23.1806 26.2842 23.8767 26.1445C24.5728 26.0048 25.2944 26.0765 25.9501 26.3505C26.6059 26.6245 27.1663 27.0885 27.5606 27.6839C27.955 28.2793 28.1654 28.9793 28.1654 29.6953C28.1645 30.6552 27.7861 31.5755 27.1133 32.2543C26.4405 32.933 25.5283 33.3148 24.5768 33.3157Z" fill="black"></path></svg> 