<?xml version="1.0" encoding="UTF-8"?> <svg xmlns="http://www.w3.org/2000/svg" width="35" height="35" viewBox="0 0 35 35" fill="none"><path d="M32.6971 13.494H31.6264V11.4861C31.6264 9.33477 29.8771 7.59037 27.7307 7.59037H18.1324V6.26273C19.5754 5.96788 20.6625 4.68963 20.6625 3.16266C20.6625 1.41662 19.2459 0 17.4999 0C15.7539 0 14.3373 1.41662 14.3373 3.16266C14.3373 4.68963 15.4244 5.9662 16.8674 6.26273V7.59037H7.26907C5.11782 7.59037 3.37345 9.3397 3.37345 11.4861V13.494H2.30276C1.03278 13.494 0 14.5268 0 15.7968V20.8866C0 22.1566 1.03278 23.1894 2.30276 23.1894H3.37345V26.0407C3.37345 28.192 5.12276 29.9364 7.26907 29.9364L12.6506 29.9347V34.3675C12.6506 34.608 12.7856 34.827 12.9998 34.9325C13.0887 34.9786 13.1859 35 13.2831 35C13.4182 35 13.5532 34.9572 13.6619 34.8732L20.241 29.9398H27.7309C29.8822 29.9398 31.6265 28.1905 31.6265 26.0442V23.1928H32.6972C33.9672 23.1928 35 22.16 35 20.89V15.7969C35 14.5269 33.967 13.494 32.6971 13.494ZM15.6025 3.16266C15.6025 2.11666 16.4541 1.26506 17.5001 1.26506C18.5461 1.26506 19.3976 2.11666 19.3976 3.16266C19.3976 4.20865 18.5461 5.06025 17.5001 5.06025C16.4541 5.06025 15.6025 4.20865 15.6025 3.16266ZM2.3031 21.9277C1.72986 21.9277 1.26538 21.4599 1.26538 20.89V15.7969C1.26538 15.2236 1.7332 14.7591 2.3031 14.7591H3.37379V21.9278L2.3031 21.9277ZM30.3614 26.0441C30.3614 27.4953 29.1803 28.6747 27.7308 28.6747H20.03C19.895 28.6747 19.7599 28.7209 19.6512 28.8016L13.9155 33.1024V29.3072C13.9155 28.958 13.6322 28.6747 13.2829 28.6747H7.26893C5.81775 28.6747 4.63835 27.4936 4.63835 26.044V11.4861C4.63835 10.0349 5.8194 8.85551 7.26893 8.85551H27.7255C29.1767 8.85551 30.3561 10.0366 30.3561 11.4861V26.044L30.3614 26.0441ZM33.7348 20.8899C33.7348 21.4631 33.267 21.9276 32.6971 21.9276H31.6264V14.7589H32.6971C33.2703 14.7589 33.7348 15.2267 33.7348 15.7966V20.8899ZM15.6025 15.8132C15.6025 14.0671 14.1859 12.6505 12.4399 12.6505C10.6939 12.6505 9.27729 14.0671 9.27729 15.8132C9.27729 17.5592 10.6939 18.9758 12.4399 18.9758C14.1859 18.9758 15.6025 17.5592 15.6025 15.8132ZM12.4399 17.7107C11.3939 17.7107 10.5423 16.8591 10.5423 15.8132C10.5423 14.7672 11.3939 13.9156 12.4399 13.9156C13.4859 13.9156 14.3375 14.7672 14.3375 15.8132C14.3375 16.8591 13.4859 17.7107 12.4399 17.7107ZM22.5603 12.6505C20.8142 12.6505 19.3976 14.0671 19.3976 15.8132C19.3976 17.5592 20.8142 18.9758 22.5603 18.9758C24.3063 18.9758 25.7229 17.5592 25.7229 15.8132C25.7229 14.0671 24.3063 12.6505 22.5603 12.6505ZM22.5603 17.7107C21.5143 17.7107 20.6627 16.8591 20.6627 15.8132C20.6627 14.7672 21.5143 13.9156 22.5603 13.9156C23.6062 13.9156 24.4578 14.7672 24.4578 15.8132C24.4578 16.8591 23.6062 17.7107 22.5603 17.7107ZM22.3494 22.5602C22.3494 23.8384 21.3084 24.8794 20.0302 24.8794H14.97C13.6918 24.8794 12.6507 23.8384 12.6507 22.5602C12.6507 22.2109 12.9341 21.9276 13.2833 21.9276C13.6325 21.9276 13.9158 22.2109 13.9158 22.5602C13.9158 23.1416 14.3885 23.6144 14.97 23.6144H20.0302C20.6116 23.6144 21.0844 23.1416 21.0844 22.5602C21.0844 22.2109 21.3677 21.9276 21.7169 21.9276C22.0661 21.9276 22.3494 22.2109 22.3494 22.5602Z" fill="black"></path></svg> 