<?xml version="1.0" encoding="UTF-8"?> <svg xmlns="http://www.w3.org/2000/svg" width="38" height="36" viewBox="0 0 38 36" fill="none"><path d="M37.7561 25.797L33.3442 14.209C33.2927 14.0737 33.19 13.9648 33.0585 13.9059C32.9272 13.847 32.7775 13.8427 32.6439 13.8948L27.9329 15.7172C27.6534 15.8252 27.5136 16.1415 27.621 16.4233L27.7361 16.7256L21.5177 14.5637C20.1093 14.0741 18.5444 14.3038 17.3323 15.1772L15.718 16.3408L10.1653 16.5725L10.2221 16.4233C10.3295 16.1415 10.1897 15.8252 9.91019 15.7172L5.19921 13.8948C5.06495 13.8423 4.91609 13.8466 4.78459 13.9059C4.65309 13.9648 4.55038 14.0737 4.49893 14.209L0.0869501 25.797C-0.0204118 26.0787 0.11935 26.3951 0.39887 26.5031L5.10985 28.3255C5.17232 28.3498 5.23817 28.3618 5.30403 28.3618C5.3792 28.3618 5.45438 28.346 5.52447 28.3144C5.65597 28.2555 5.75867 28.1466 5.81013 28.0113L6.20694 26.9691L9.28381 29.2173C9.73401 29.546 10.2609 29.94 10.7545 30.3699C11.4035 30.9359 12.1012 31.4623 12.8288 31.934L17.4085 34.9009C18.0104 35.2907 18.6967 35.4806 19.38 35.4806C20.1938 35.4806 21.0036 35.2108 21.6606 34.6879C22.4132 35.0401 23.3376 34.9043 23.9576 34.2794C24.2869 33.9477 24.5016 33.5306 24.5812 33.0781C25.2836 33.4 26.1412 33.2702 26.7178 32.6892C27.0427 32.3618 27.2464 31.9447 27.3065 31.493C27.4901 31.5451 27.682 31.5724 27.8781 31.5724C28.4382 31.5724 28.9646 31.3521 29.3606 30.953C29.8586 30.4514 30.0437 29.7611 29.9129 29.1186C29.9463 29.1058 29.9789 29.0892 30.0103 29.0691L31.9596 27.8186L32.033 28.0113C32.0844 28.1466 32.1871 28.2555 32.3186 28.3144C32.3887 28.346 32.4639 28.3618 32.5391 28.3618C32.6049 28.3618 32.6708 28.3498 32.7333 28.3255L37.4442 26.5031C37.7238 26.3951 37.8635 26.0787 37.7561 25.797ZM4.9921 27.1093L1.29333 25.6787L5.31694 15.111L9.01572 16.5415L8.85605 16.9608C8.85595 16.9611 8.85587 16.9614 8.85579 16.9616L4.9921 27.1093ZM28.5938 30.1803C28.2114 30.5662 27.545 30.5662 27.1621 30.1803L23.0574 26.0429C22.8456 25.8294 22.5026 25.8294 22.2908 26.0429C22.0791 26.2563 22.0791 26.6021 22.2908 26.8156L25.9511 30.5052C26.138 30.6935 26.241 30.944 26.241 31.2109C26.241 31.4772 26.1378 31.7278 25.9511 31.9165C25.6322 32.2384 25.1119 32.2388 24.7921 31.9165L23.9762 31.0943C23.9701 31.0879 23.9639 31.0815 23.9576 31.0751L21.3862 28.4834C21.1744 28.27 20.8314 28.27 20.6196 28.4834C20.4079 28.6969 20.4079 29.0427 20.6196 29.2561L23.2041 31.8614C23.6446 32.3199 23.6404 33.0538 23.191 33.5067C22.8209 33.8798 22.219 33.8798 21.8489 33.5067L18.5122 30.1436C18.3005 29.9302 17.9574 29.9302 17.7457 30.1436C17.5339 30.3571 17.5339 30.7029 17.7457 30.9163L20.7831 33.978C19.9498 34.5163 18.8508 34.5364 17.9947 33.9814L13.4152 31.0145C12.7308 30.5709 12.0743 30.0762 11.4636 29.5434C10.9387 29.0862 10.3888 28.6743 9.91992 28.3323L6.70946 25.987C6.67561 25.9621 6.63699 25.9523 6.60009 25.9364L9.7421 17.684L14.1804 17.4988C13.7946 17.8505 13.4588 18.2518 13.1831 18.702L11.8581 20.8668C11.6388 21.225 11.5746 21.6472 11.6777 22.0553C11.7806 22.4634 12.0373 22.8036 12.4002 23.0124C13.7974 23.8175 15.5434 23.6314 16.7432 22.5496L18.0665 21.356L20.7535 20.5701L28.6095 28.8796C28.9585 29.2489 28.9517 29.82 28.5938 30.1803ZM31.547 26.7878L29.4283 28.147C29.4254 28.1488 29.4224 28.1509 29.4197 28.1526C29.4114 28.1436 29.4029 28.1347 29.3945 28.1257L21.311 19.5759C21.2073 19.4662 21.0647 19.4064 20.9186 19.4064C20.8682 19.4064 20.8174 19.4137 20.7677 19.4282L17.6459 20.3413C17.5678 20.3639 17.496 20.4041 17.4354 20.4587L16.0203 21.7351C15.1688 22.5031 13.9302 22.635 12.9381 22.0638C12.8329 22.0032 12.7583 21.9042 12.7283 21.7855C12.6984 21.6672 12.717 21.5451 12.7808 21.441L14.106 19.2758C14.4179 18.7661 14.8219 18.3302 15.3062 17.981L17.9629 16.066C18.8902 15.3975 20.0866 15.2224 21.1643 15.5968L28.2434 18.0581L29.1911 20.5473L31.547 26.7878ZM32.851 27.1093L30.2059 20.1622L29.1759 17.4337C29.1712 17.4214 29.1603 17.4132 29.1547 17.4013L28.8274 16.5415L32.5262 15.111L36.5498 25.6787L32.851 27.1093ZM6.80857 12.2598V10.4348C6.80857 10.133 7.05124 9.8884 7.35067 9.8884H8.89544C9.15018 8.78403 9.57624 7.74455 10.1662 6.78788L9.07628 5.68906C8.86453 5.47562 8.86453 5.12983 9.07628 4.91638L11.6364 2.33582C11.8482 2.12237 12.1912 2.12237 12.403 2.33582L13.4931 3.43464C14.4429 2.83955 15.4741 2.41009 16.5691 2.15353V0.596228C16.5691 0.294414 16.8118 0.0498047 17.1112 0.0498047H20.7319C21.0313 0.0498047 21.274 0.294414 21.274 0.596228V2.15353C22.369 2.41009 23.4002 2.83955 24.35 3.43464L25.4401 2.33582C25.6518 2.12237 25.9949 2.12237 26.2067 2.33582L28.7668 4.91638C28.9786 5.12983 28.9786 5.47562 28.7668 5.68906L27.6769 6.78788C28.2668 7.74455 28.6929 8.78404 28.9477 9.8884H30.4924C30.7919 9.8884 31.0345 10.133 31.0345 10.4348V12.2598C31.0345 12.5616 30.7919 12.8062 30.4924 12.8062C30.193 12.8062 29.9503 12.5616 29.9503 12.2598V10.9813H28.5078C28.2469 10.9813 28.0231 10.7943 27.975 10.5356C27.7379 9.26386 27.2536 8.08222 26.5351 7.02353C26.3879 6.80624 26.4148 6.51424 26.5993 6.32855L27.617 5.30272L25.8234 3.49483L24.8057 4.52066C24.6212 4.70721 24.332 4.7341 24.1164 4.58554C23.0652 3.86068 21.8929 3.37231 20.6319 3.13411C20.3755 3.08587 20.1898 2.86005 20.1898 2.59708V1.14265H17.6533V2.59708C17.6533 2.86004 17.4676 3.08587 17.2112 3.13411C15.9502 3.37231 14.7779 3.86068 13.7267 4.58554C13.5111 4.7341 13.2219 4.70721 13.0374 4.52066L12.0197 3.49483L10.2261 5.30272L11.2438 6.32855C11.4283 6.51424 11.4552 6.80624 11.308 7.02353C10.5895 8.08222 10.1052 9.26386 9.86805 10.5356C9.81998 10.7943 9.59615 10.9813 9.33526 10.9813H7.89277V12.2598C7.89277 12.5616 7.65009 12.8062 7.35067 12.8062C7.05124 12.8062 6.80857 12.5616 6.80857 12.2598ZM24.296 12.2598C24.296 12.5616 24.0533 12.8062 23.7539 12.8062C23.4544 12.8062 23.2118 12.5616 23.2118 12.2598C23.2118 9.87517 21.2871 7.93537 18.9215 7.93537C16.556 7.93537 14.6313 9.87517 14.6313 12.2598C14.6313 12.5616 14.3887 12.8062 14.0892 12.8062C13.7898 12.8062 13.5471 12.5616 13.5471 12.2598C13.5471 9.27282 15.958 6.84252 18.9215 6.84252C21.8851 6.84252 24.296 9.27282 24.296 12.2598Z" fill="black" stroke="black" stroke-width="0.1"></path></svg> 