<?xml version="1.0" encoding="UTF-8"?> <svg xmlns="http://www.w3.org/2000/svg" width="39" height="29" viewBox="0 0 39 29" fill="none"><path d="M21.1264 0.250005C20.9535 0.250661 20.788 0.317842 20.6657 0.436908C20.5435 0.555975 20.4745 0.717276 20.4738 0.885661C20.4745 1.05404 20.5435 1.21534 20.6657 1.3344C20.788 1.45346 20.9535 1.52064 21.1264 1.52129H22.7322V3.90565C17.2045 5.20679 13.0885 10.0936 13.0885 15.9083C13.0885 22.7154 18.7294 28.25 25.6725 28.25C32.6156 28.25 38.25 22.7154 38.25 15.9083C38.25 10.0941 34.1386 5.20858 28.6128 3.90688V1.52129H30.2134C30.3872 1.52196 30.5541 1.45536 30.6774 1.33616C30.8007 1.21695 30.8704 1.0549 30.8711 0.885661C30.8708 0.801858 30.8535 0.718939 30.8203 0.64164C30.787 0.564341 30.7385 0.494176 30.6774 0.43515C30.6163 0.376124 30.5439 0.329392 30.4643 0.297625C30.3847 0.265858 30.2995 0.249677 30.2134 0.250005H21.1264ZM24.0424 1.52129H27.3013V3.66882C26.7678 3.60105 26.2246 3.56656 25.6725 3.56656C25.1203 3.56656 24.5759 3.60081 24.0424 3.66882V1.52129ZM25.6725 4.84291C31.9021 4.84291 36.9449 9.78573 36.9449 15.9083C36.9449 22.0309 31.9021 26.9787 25.6725 26.9787C19.4429 26.9787 14.4 22.0309 14.4 15.9083C14.4 9.78573 19.4429 4.84291 25.6725 4.84291ZM5.28869 4.93263C5.20223 4.9323 5.11656 4.94865 5.03661 4.98073C4.95667 5.01281 4.88403 5.05999 4.8229 5.11954C4.76176 5.1791 4.71333 5.24985 4.6804 5.32773C4.64747 5.4056 4.63069 5.48906 4.63103 5.57328C4.63136 5.65708 4.64864 5.74 4.68187 5.8173C4.71511 5.8946 4.76364 5.96477 4.82471 6.02379C4.88578 6.08282 4.95819 6.12955 5.0378 6.16132C5.11741 6.19308 5.20266 6.20927 5.28869 6.20894H13.5581C13.6442 6.20927 13.7294 6.19308 13.809 6.16132C13.8886 6.12955 13.961 6.08282 14.0221 6.02379C14.0832 5.96477 14.1317 5.8946 14.1649 5.8173C14.1982 5.74 14.2155 5.65708 14.2158 5.57328C14.2161 5.48906 14.1994 5.4056 14.1664 5.32773C14.1335 5.24985 14.0851 5.1791 14.0239 5.11954C13.9628 5.05998 13.8902 5.01281 13.8102 4.98073C13.7303 4.94865 13.6446 4.9323 13.5581 4.93263H5.28869ZM25.5509 8.36144C25.4649 8.36176 25.3798 8.37859 25.3004 8.41097C25.2211 8.44334 25.149 8.49062 25.0884 8.55011C25.0278 8.6096 24.9799 8.68013 24.9473 8.75768C24.9146 8.83523 24.898 8.91828 24.8984 9.00208V16.9203C24.8979 17.0043 24.9144 17.0874 24.9469 17.1651C24.9795 17.2428 25.0274 17.3135 25.088 17.3731C25.1486 17.4327 25.2207 17.4801 25.3001 17.5126C25.3796 17.545 25.4648 17.5619 25.5509 17.5622H30.2275C30.3141 17.5626 30.3999 17.5462 30.4799 17.514C30.5599 17.4819 30.6326 17.4346 30.6938 17.3749C30.7549 17.3152 30.8033 17.2443 30.8362 17.1663C30.869 17.0883 30.8857 17.0047 30.8852 16.9203C30.8848 16.8365 30.8676 16.7536 30.8343 16.6763C30.8011 16.599 30.7526 16.5289 30.6915 16.4698C30.6304 16.4108 30.558 16.3641 30.4784 16.3323C30.3988 16.3005 30.3135 16.2844 30.2275 16.2847H26.2035V9.00208C26.2038 8.91828 26.1872 8.83523 26.1546 8.75768C26.122 8.68013 26.074 8.6096 26.0134 8.55011C25.9528 8.49062 25.8808 8.44334 25.8014 8.41096C25.7221 8.37859 25.6369 8.36176 25.5509 8.36144ZM2.136 10.1051C2.04997 10.1048 1.96471 10.121 1.8851 10.1527C1.80549 10.1845 1.73308 10.2312 1.67201 10.2903C1.61094 10.3493 1.56241 10.4195 1.52917 10.4968C1.49594 10.5741 1.47866 10.657 1.47833 10.7408C1.47866 10.8246 1.49594 10.9075 1.52917 10.9848C1.56241 11.0621 1.61094 11.1323 1.67201 11.1913C1.73308 11.2503 1.80549 11.297 1.8851 11.3288C1.96471 11.3606 2.04997 11.3768 2.136 11.3764H10.4054C10.4915 11.3768 10.5767 11.3606 10.6563 11.3288C10.7359 11.297 10.8083 11.2503 10.8694 11.1913C10.9305 11.1323 10.979 11.0621 11.0122 10.9848C11.0455 10.9075 11.0628 10.8246 11.0631 10.7408C11.0628 10.657 11.0455 10.5741 11.0122 10.4968C10.979 10.4195 10.9305 10.3493 10.8694 10.2903C10.8083 10.2312 10.7359 10.1845 10.6563 10.1527C10.5767 10.121 10.4915 10.1048 10.4054 10.1051H2.136ZM0.907673 15.2726C0.821642 15.2723 0.736388 15.2885 0.656778 15.3203C0.577168 15.352 0.50476 15.3988 0.44369 15.4578C0.38262 15.5168 0.334083 15.587 0.30085 15.6643C0.267618 15.7416 0.25034 15.8245 0.250005 15.9083C0.249669 15.9925 0.266451 16.076 0.299383 16.1538C0.332315 16.2317 0.380746 16.3025 0.441883 16.362C0.503021 16.4216 0.575655 16.4687 0.655599 16.5008C0.735542 16.5329 0.821213 16.5492 0.907673 16.5489H9.1771C9.26356 16.5492 9.34923 16.5329 9.42918 16.5008C9.50912 16.4687 9.58175 16.4216 9.64289 16.362C9.70403 16.3025 9.75246 16.2317 9.78539 16.1538C9.81833 16.076 9.83511 15.9925 9.83477 15.9083C9.83444 15.8245 9.81716 15.7416 9.78393 15.6643C9.75069 15.587 9.70216 15.5168 9.64109 15.4578C9.58002 15.3988 9.50761 15.352 9.428 15.3203C9.34839 15.2885 9.26313 15.2723 9.1771 15.2726H0.907673ZM2.136 20.4401C2.04997 20.4398 1.96471 20.456 1.8851 20.4877C1.80549 20.5195 1.73308 20.5662 1.67201 20.6253C1.61094 20.6843 1.56241 20.7545 1.52917 20.8318C1.49594 20.9091 1.47866 20.992 1.47833 21.0758C1.47799 21.16 1.49477 21.2435 1.5277 21.3213C1.56063 21.3992 1.60906 21.47 1.6702 21.5295C1.73134 21.5891 1.80397 21.6363 1.88392 21.6683C1.96386 21.7004 2.04954 21.7168 2.136 21.7164H10.4054C10.4919 21.7168 10.5776 21.7004 10.6575 21.6683C10.7375 21.6363 10.8101 21.5891 10.8712 21.5295C10.9324 21.47 10.9808 21.3992 11.0137 21.3213C11.0467 21.2435 11.0634 21.16 11.0631 21.0758C11.0628 20.992 11.0455 20.9091 11.0122 20.8318C10.979 20.7545 10.9305 20.6843 10.8694 20.6253C10.8083 20.5662 10.7359 20.5195 10.6563 20.4877C10.5767 20.456 10.4915 20.4398 10.4054 20.4401H2.136ZM5.28869 25.6076C5.20266 25.6073 5.11741 25.6235 5.0378 25.6553C4.95819 25.687 4.88578 25.7338 4.82471 25.7928C4.76364 25.8518 4.71511 25.922 4.68187 25.9993C4.64864 26.0766 4.63136 26.1595 4.63103 26.2433C4.63069 26.3275 4.64747 26.411 4.68041 26.4888C4.71334 26.5667 4.76177 26.6375 4.82291 26.697C4.88404 26.7566 4.95668 26.8038 5.03662 26.8358C5.11656 26.8679 5.20223 26.8843 5.28869 26.8839H13.5581C13.6446 26.8843 13.7303 26.8679 13.8102 26.8358C13.8901 26.8038 13.9628 26.7566 14.0239 26.697C14.0851 26.6375 14.1335 26.5667 14.1664 26.4888C14.1993 26.411 14.2161 26.3275 14.2158 26.2433C14.2155 26.1595 14.1982 26.0766 14.1649 25.9993C14.1317 25.922 14.0832 25.8518 14.0221 25.7928C13.961 25.7338 13.8886 25.687 13.809 25.6553C13.7294 25.6235 13.6442 25.6073 13.5581 25.6076H5.28869Z" fill="black" stroke="black" stroke-width="0.5"></path></svg> 